<mxfile host="app.diagrams.net" modified="2023-11-17T21:05:25.266Z" agent="Mozilla/5.0 (Windows NT 10.0; Win64; x64) AppleWebKit/537.36 (KHTML, like Gecko) Chrome/119.0.0.0 Safari/537.36" version="22.1.3" etag="3k1wR_3qBfmHQ3_8a0qq" type="github">
  <diagram name="Page-1" id="WgsJ8NFDW0C9XvvK6SC1">
    <mxGraphModel>
      <root>
        <mxCell id="0" />
        <mxCell id="1" parent="0" />
      </root>
    </mxGraphModel>
  </diagram>
</mxfile>
